<svg xmlns="http://www.w3.org/2000/svg" viewBox="0 0 900 660" role="img" font-family="Helvetica, Arial, sans-serif">
  <title>ai-team architecture: multi-backend agent pipeline</title>
  <desc>System diagram of the ai-team architecture: three supported backends (CrewAI, LangGraph, Claude Agent SDK), nine specialized agents, four guardrail layers, a self-improvement loop, and the 2026-07-04 n=5 smoke-test variance results.</desc>

  <rect width="900" height="660" fill="#ffffff"/>

  <text x="40" y="40" font-size="24" font-weight="700" fill="#111827">ai-team — multi-backend agent architecture</text>
  <text x="40" y="64" font-size="14" fill="#6b7280">Three backends, one agent team, file-based phase handoff</text>

  <!-- INPUT -->
  <text x="40" y="98" font-size="11" font-weight="700" fill="#6b7280" letter-spacing="1">INPUT</text>
  <rect x="40" y="106" width="160" height="48" rx="8" fill="#f3f4f6" stroke="#9ca3af"/>
  <text x="120" y="128" text-anchor="middle" font-size="12" font-weight="600" fill="#374151">Project description</text>
  <text x="120" y="145" text-anchor="middle" font-size="11" fill="#6b7280">"Build a Flask REST API"</text>
  <line x1="200" y1="130" x2="234" y2="130" stroke="#9ca3af" stroke-width="1.5" marker-end="url(#a)"/>

  <!-- BACKEND -->
  <text x="242" y="98" font-size="11" font-weight="700" fill="#6b7280" letter-spacing="1">BACKEND (--backend)</text>
  <rect x="242" y="106" width="150" height="44" rx="8" fill="#ede9fe" stroke="#8b5cf6"/>
  <text x="317" y="124" text-anchor="middle" font-size="13" font-weight="600" fill="#5b21b6">CrewAI</text>
  <text x="317" y="140" text-anchor="middle" font-size="10.5" fill="#7c3aed">Flows · typed state</text>
  <rect x="242" y="158" width="150" height="44" rx="8" fill="#ccfbf1" stroke="#14b8a6"/>
  <text x="317" y="176" text-anchor="middle" font-size="13" font-weight="600" fill="#0f766e">LangGraph</text>
  <text x="317" y="192" text-anchor="middle" font-size="10.5" fill="#0d9488">StateGraph · streaming</text>
  <rect x="242" y="210" width="150" height="44" rx="8" fill="#ffedd5" stroke="#f97316"/>
  <text x="317" y="228" text-anchor="middle" font-size="13" font-weight="600" fill="#9a3412">Claude Agent SDK</text>
  <text x="317" y="244" text-anchor="middle" font-size="10.5" fill="#c2410c">Subagents · Anthropic</text>
  <line x1="392" y1="128" x2="424" y2="128" stroke="#8b5cf6" stroke-width="1.5" marker-end="url(#a)"/>
  <line x1="392" y1="180" x2="424" y2="180" stroke="#14b8a6" stroke-width="1.5" marker-end="url(#a)"/>
  <line x1="392" y1="232" x2="424" y2="232" stroke="#f97316" stroke-width="1.5" marker-end="url(#a)"/>
  <line x1="424" y1="128" x2="424" y2="232" stroke="#d1d5db" stroke-width="1" stroke-dasharray="3 3"/>
  <line x1="424" y1="180" x2="452" y2="180" stroke="#9ca3af" stroke-width="1.5" marker-end="url(#a)"/>

  <!-- PIPELINE -->
  <text x="460" y="98" font-size="11" font-weight="700" fill="#6b7280" letter-spacing="1">PIPELINE PHASES</text>
  <rect x="458" y="106" width="80" height="40" rx="6" fill="#f3f4f6" stroke="#9ca3af"/>
  <text x="498" y="123" text-anchor="middle" font-size="11" font-weight="600" fill="#374151">Intake</text>
  <text x="498" y="138" text-anchor="middle" font-size="10" fill="#6b7280">Manager</text>
  <line x1="538" y1="126" x2="550" y2="126" stroke="#9ca3af" stroke-width="1.2" marker-end="url(#a)"/>
  <rect x="550" y="106" width="80" height="40" rx="6" fill="#f3f4f6" stroke="#9ca3af"/>
  <text x="590" y="123" text-anchor="middle" font-size="11" font-weight="600" fill="#374151">Planning</text>
  <text x="590" y="138" text-anchor="middle" font-size="10" fill="#6b7280">PO · Architect</text>
  <line x1="630" y1="126" x2="642" y2="126" stroke="#9ca3af" stroke-width="1.2" marker-end="url(#a)"/>
  <rect x="642" y="106" width="70" height="40" rx="6" fill="#f3f4f6" stroke="#9ca3af"/>
  <text x="677" y="123" text-anchor="middle" font-size="11" font-weight="600" fill="#374151">Dev</text>
  <text x="677" y="138" text-anchor="middle" font-size="10" fill="#6b7280">BE · FE · Full</text>
  <line x1="712" y1="126" x2="724" y2="126" stroke="#9ca3af" stroke-width="1.2" marker-end="url(#a)"/>
  <rect x="724" y="106" width="72" height="40" rx="6" fill="#f3f4f6" stroke="#9ca3af"/>
  <text x="760" y="123" text-anchor="middle" font-size="11" font-weight="600" fill="#374151">Testing</text>
  <text x="760" y="138" text-anchor="middle" font-size="10" fill="#6b7280">QA</text>
  <line x1="796" y1="126" x2="808" y2="126" stroke="#9ca3af" stroke-width="1.2" marker-end="url(#a)"/>
  <rect x="808" y="106" width="52" height="40" rx="6" fill="#f3f4f6" stroke="#9ca3af"/>
  <text x="834" y="123" text-anchor="middle" font-size="11" font-weight="600" fill="#374151">Deploy</text>
  <text x="834" y="138" text-anchor="middle" font-size="10" fill="#6b7280">DevOps</text>

  <!-- AGENTS -->
  <text x="40" y="298" font-size="11" font-weight="700" fill="#6b7280" letter-spacing="1">9 SPECIALIZED AGENTS</text>
  <g font-family="Helvetica, Arial, sans-serif">
    <rect x="40" y="306" width="112" height="40" rx="6" fill="#f9fafb" stroke="#d1d5db"/>
    <text x="96" y="324" text-anchor="middle" font-size="12" font-weight="600" fill="#374151">Manager</text>
    <text x="96" y="339" text-anchor="middle" font-size="10" fill="#6b7280">Coordinator</text>
    <rect x="160" y="306" width="112" height="40" rx="6" fill="#f9fafb" stroke="#d1d5db"/>
    <text x="216" y="324" text-anchor="middle" font-size="12" font-weight="600" fill="#374151">Product Owner</text>
    <text x="216" y="339" text-anchor="middle" font-size="10" fill="#6b7280">Requirements</text>
    <rect x="280" y="306" width="112" height="40" rx="6" fill="#f9fafb" stroke="#d1d5db"/>
    <text x="336" y="324" text-anchor="middle" font-size="12" font-weight="600" fill="#374151">Architect</text>
    <text x="336" y="339" text-anchor="middle" font-size="10" fill="#6b7280">System design</text>

    <rect x="40" y="354" width="112" height="40" rx="6" fill="#f9fafb" stroke="#d1d5db"/>
    <text x="96" y="372" text-anchor="middle" font-size="12" font-weight="600" fill="#374151">Backend Dev</text>
    <text x="96" y="387" text-anchor="middle" font-size="10" fill="#6b7280">APIs · services</text>
    <rect x="160" y="354" width="112" height="40" rx="6" fill="#f9fafb" stroke="#d1d5db"/>
    <text x="216" y="372" text-anchor="middle" font-size="12" font-weight="600" fill="#374151">Frontend Dev</text>
    <text x="216" y="387" text-anchor="middle" font-size="10" fill="#6b7280">UI · components</text>
    <rect x="280" y="354" width="112" height="40" rx="6" fill="#f9fafb" stroke="#d1d5db"/>
    <text x="336" y="372" text-anchor="middle" font-size="12" font-weight="600" fill="#374151">Fullstack Dev</text>
    <text x="336" y="387" text-anchor="middle" font-size="10" fill="#6b7280">End-to-end</text>

    <rect x="40" y="402" width="112" height="40" rx="6" fill="#f9fafb" stroke="#d1d5db"/>
    <text x="96" y="420" text-anchor="middle" font-size="12" font-weight="600" fill="#374151">QA Engineer</text>
    <text x="96" y="435" text-anchor="middle" font-size="10" fill="#6b7280">Tests · coverage</text>
    <rect x="160" y="402" width="112" height="40" rx="6" fill="#f9fafb" stroke="#d1d5db"/>
    <text x="216" y="420" text-anchor="middle" font-size="12" font-weight="600" fill="#374151">DevOps</text>
    <text x="216" y="435" text-anchor="middle" font-size="10" fill="#6b7280">CI/CD · Docker</text>
    <rect x="280" y="402" width="112" height="40" rx="6" fill="#f9fafb" stroke="#d1d5db"/>
    <text x="336" y="420" text-anchor="middle" font-size="12" font-weight="600" fill="#374151">Cloud Engineer</text>
    <text x="336" y="435" text-anchor="middle" font-size="10" fill="#6b7280">Infra · IaC</text>
  </g>

  <!-- GUARDRAILS -->
  <text x="430" y="298" font-size="11" font-weight="700" fill="#6b7280" letter-spacing="1">GUARDRAIL LAYERS</text>
  <rect x="430" y="306" width="150" height="40" rx="6" fill="#dcfce7" stroke="#22c55e"/>
  <text x="505" y="324" text-anchor="middle" font-size="12" font-weight="600" fill="#166534">Security</text>
  <text x="505" y="339" text-anchor="middle" font-size="10" fill="#15803d">blocks eval · rm-rf · os.system</text>
  <rect x="430" y="354" width="150" height="40" rx="6" fill="#ede9fe" stroke="#8b5cf6"/>
  <text x="505" y="372" text-anchor="middle" font-size="12" font-weight="600" fill="#5b21b6">Behavioral</text>
  <text x="505" y="387" text-anchor="middle" font-size="10" fill="#7c3aed">role enforcement · scope control</text>
  <rect x="430" y="402" width="150" height="40" rx="6" fill="#ffedd5" stroke="#f97316"/>
  <text x="505" y="420" text-anchor="middle" font-size="12" font-weight="600" fill="#9a3412">Quality</text>
  <text x="505" y="435" text-anchor="middle" font-size="10" fill="#c2410c">coverage · complexity · docs</text>
  <rect x="430" y="450" width="150" height="40" rx="6" fill="#fee2e2" stroke="#ef4444"/>
  <text x="505" y="468" text-anchor="middle" font-size="12" font-weight="600" fill="#991b1b">Operational</text>
  <text x="505" y="483" text-anchor="middle" font-size="9.5" fill="#b91c1c">spend cap · timeout · retry bound</text>

  <!-- SELF-IMPROVEMENT -->
  <text x="610" y="298" font-size="11" font-weight="700" fill="#6b7280" letter-spacing="1">SELF-IMPROVEMENT LOOP</text>
  <rect x="610" y="306" width="250" height="136" rx="8" fill="#f9fafb" stroke="#d1d5db" stroke-dasharray="4 3"/>
  <circle cx="632" cy="332" r="4" fill="#ef4444"/>
  <text x="646" y="336" font-size="11" font-weight="600" fill="#374151">Failure captured → SQLite</text>
  <line x1="632" y1="336" x2="632" y2="352" stroke="#9ca3af" stroke-width="1" stroke-dasharray="2 2" marker-end="url(#a)"/>
  <circle cx="632" cy="359" r="4" fill="#f97316"/>
  <text x="646" y="363" font-size="11" font-weight="600" fill="#374151">Pattern clustering</text>
  <line x1="632" y1="363" x2="632" y2="379" stroke="#9ca3af" stroke-width="1" stroke-dasharray="2 2" marker-end="url(#a)"/>
  <circle cx="632" cy="386" r="4" fill="#8b5cf6"/>
  <text x="646" y="390" font-size="11" font-weight="600" fill="#374151">Lessons extracted → SQLite</text>
  <line x1="632" y1="390" x2="632" y2="406" stroke="#9ca3af" stroke-width="1" stroke-dasharray="2 2" marker-end="url(#a)"/>
  <circle cx="632" cy="413" r="4" fill="#22c55e"/>
  <text x="646" y="417" font-size="11" font-weight="600" fill="#374151">Injected into prompts next run</text>

  <!-- BENCHMARK -->
  <text x="40" y="522" font-size="11" font-weight="700" fill="#6b7280" letter-spacing="1">BENCHMARK — n=5 SMOKE VARIANCE (add(a,b) + pytest · 2026-07-04)</text>
  <rect x="40" y="530" width="820" height="24" rx="4" fill="#f3f4f6"/>
  <text x="130" y="546" text-anchor="middle" font-size="11" font-weight="700" fill="#6b7280">BACKEND</text>
  <text x="330" y="546" text-anchor="middle" font-size="11" font-weight="700" fill="#6b7280">GREEN</text>
  <text x="460" y="546" text-anchor="middle" font-size="11" font-weight="700" fill="#6b7280">MEDIAN</text>
  <text x="640" y="546" text-anchor="middle" font-size="11" font-weight="700" fill="#6b7280">NOTES</text>

  <rect x="40" y="554" width="820" height="28" rx="3" fill="#fdf4ff"/>
  <rect x="40" y="554" width="4" height="28" fill="#8b5cf6"/>
  <text x="130" y="572" text-anchor="middle" font-size="12" font-weight="600" fill="#5b21b6">CrewAI</text>
  <rect x="300" y="559" width="60" height="16" rx="8" fill="#22c55e"/>
  <text x="330" y="571" text-anchor="middle" font-size="9" font-weight="700" fill="#ffffff">5/5</text>
  <text x="460" y="572" text-anchor="middle" font-size="11" fill="#374151">9m07s</text>
  <text x="640" y="572" text-anchor="middle" font-size="10" fill="#6b7280">7-run green streak · demotion reversed</text>

  <rect x="40" y="582" width="820" height="28" rx="3" fill="#f0fdfa"/>
  <rect x="40" y="582" width="4" height="28" fill="#14b8a6"/>
  <text x="130" y="600" text-anchor="middle" font-size="12" font-weight="600" fill="#0f766e">LangGraph</text>
  <rect x="300" y="587" width="60" height="16" rx="8" fill="#f59e0b"/>
  <text x="330" y="599" text-anchor="middle" font-size="9" font-weight="700" fill="#ffffff">1/5</text>
  <text x="460" y="600" text-anchor="middle" font-size="11" fill="#374151">3m55s</text>
  <text x="640" y="600" text-anchor="middle" font-size="10" fill="#6b7280">lint-gate + test-layout failures</text>

  <rect x="40" y="610" width="820" height="28" rx="3" fill="#fff7ed"/>
  <rect x="40" y="610" width="4" height="28" fill="#f97316"/>
  <text x="130" y="628" text-anchor="middle" font-size="12" font-weight="600" fill="#9a3412">Claude Agent SDK</text>
  <rect x="300" y="615" width="60" height="16" rx="8" fill="#22c55e"/>
  <text x="330" y="627" text-anchor="middle" font-size="9" font-weight="700" fill="#ffffff">5/5</text>
  <text x="460" y="628" text-anchor="middle" font-size="11" fill="#374151">3m17s</text>
  <text x="640" y="628" text-anchor="middle" font-size="10" fill="#6b7280">Fastest · tightest spread · $0.71/run median</text>

  <defs><marker id="a" viewBox="0 0 10 10" refX="8" refY="5" markerWidth="6" markerHeight="6" orient="auto-start-reverse"><path d="M2 1L8 5L2 9" fill="none" stroke="context-stroke" stroke-width="1.5" stroke-linecap="round" stroke-linejoin="round"/></marker></defs>
</svg>
